# xmcd
#
# Track frame offsets:
#	150
#	13490
#	27722
#	36765
#	48400
#	62452
#	72037
#	86045
#	104597
#	115212
#	128252
#	142010
#	148667
#	169135
#	179620
#	193595
#	202552
#	219035
#	229747
#	245090
#
# Disc length: 3495 seconds
#
# Revision: 2
# Processed by: cddbd v1.5.2PL0 Copyright (c) Steve Scherf et al.
# Submitted via: AudioConverter v8.05 Copyright (c) D.R. Software
#
DISCID=210da514
DTITLE=Mance Lipscomb - Songster TBC #85
DYEAR=1996
DGENRE=Blues
TTITLE0=Corrine, Corrina
TTITLE1=Captain, Captain
TTITLE2=Alabama Jubilee
TTITLE3=I Want To Do Something For You
TTITLE4=Evil Blues
TTITLE5=Mr Tom
TTITLE6=Mother Had A Sick Child
TTITLE7=Texas Blues
TTITLE8=Long Way From Tipperari
TTITLE9=Haunted House Blues
TTITLE10=Wonder Where My Easy Rider Gone
TTITLE11=A Rag
TTITLE12=Louise
TTITLE13=Ain't You Sorry
TTITLE14=Joe Turner Killed A Man
TTITLE15=Alabama Bound
TTITLE16=Tom Moore's Farm
TTITLE17=Baby Don't You Lay It On Me
TTITLE18=Johnny Take A One On Me and Buck Dance
TTITLE19=Farewell
EXTD=
EXTT0=
EXTT1=
EXTT2=
EXTT3=
EXTT4=
EXTT5=
EXTT6=
EXTT7=
EXTT8=
EXTT9=
EXTT10=
EXTT11=
EXTT12=
EXTT13=
EXTT14=
EXTT15=
EXTT16=
EXTT17=
EXTT18=
EXTT19=
PLAYORDER=
